<svg xmlns="http://www.w3.org/2000/svg" viewBox="0 0 265.12 265.12"><script xmlns="" id="dashlane_tiresias"/><script xmlns="" id="dashlane_webauthn"/><defs><style>.cls-1{fill:#eb212e;}.cls-2,.cls-3{fill:none;stroke:#eb212e;}.cls-2{stroke-linecap:round;stroke-linejoin:round;stroke-width:12px;}.cls-3{stroke-miterlimit:10;stroke-width:10px;}</style></defs><g id="Calque_2" data-name="Calque 2"><g id="KeyProd-Icon"><g id="KeyProd-Icon-Red--Circle-Transparent"><path id="Triangle_Gauche" data-name="Triangle Gauche" class="cls-1" d="M113.46,141.08V128.77l-47,12.31Z"/><path id="Triangle_Droite" data-name="Triangle Droite" class="cls-1" d="M151.56,141.08V128.77l47,12.31Z"/><g id="Y_Pointe" data-name="Y Pointe"><path class="cls-1" d="M126.16,231.6l-2-31.39,1.47,1.91L62.43,189.74a6,6,0,1,1,2.3-11.8c.24.05.51.12.73.19l61.19,20.18.24.08a1.8,1.8,0,0,1,1.23,1.82Z"/></g><path id="YP" class="cls-2" d="M54.61,73.25V88.08a14.48,14.48,0,0,0,12.62,14,10.91,10.91,0,0,0,1.44.09H124.2V73.25l72.29,0a11.6,11.6,0,0,1,1.44.09,14.53,14.53,0,0,1,0,28.8,11.6,11.6,0,0,1-1.44.09H140.92V171m-16.72,0L63.64,183.55m60.56-81.36V171"/><circle class="cls-3" cx="132.56" cy="132.56" r="127.56"/></g></g></g></svg>